<?xml version="1.0" encoding="utf-8" standalone="no"?>
<!DOCTYPE svg PUBLIC "-//W3C//DTD SVG 1.1//EN"
  "http://www.w3.org/Graphics/SVG/1.1/DTD/svg11.dtd">
<svg xmlns:xlink="http://www.w3.org/1999/xlink" width="907.20625pt" height="489.314375pt" viewBox="0 0 907.20625 489.314375" xmlns="http://www.w3.org/2000/svg" version="1.1">
 <metadata>
  <rdf:RDF xmlns:dc="http://purl.org/dc/elements/1.1/" xmlns:cc="http://creativecommons.org/ns#" xmlns:rdf="http://www.w3.org/1999/02/22-rdf-syntax-ns#">
   <cc:Work>
    <dc:type rdf:resource="http://purl.org/dc/dcmitype/StillImage"/>
    <dc:date>2024-07-05T16:31:26.216806</dc:date>
    <dc:format>image/svg+xml</dc:format>
    <dc:creator>
     <cc:Agent>
      <dc:title>Matplotlib v3.5.1, https://matplotlib.org/</dc:title>
     </cc:Agent>
    </dc:creator>
   </cc:Work>
  </rdf:RDF>
 </metadata>
 <defs>
  <style type="text/css">*{stroke-linejoin: round; stroke-linecap: butt}</style>
 </defs>
 <g id="figure_1">
  <g id="patch_1">
   <path d="M 0 489.314375 
L 907.20625 489.314375 
L 907.20625 0 
L 0 0 
L 0 489.314375 
z
" style="fill: none"/>
  </g>
  <g id="axes_1">
   <g id="patch_2">
    <path d="M 63.00625 442.08 
L 900.00625 442.08 
L 900.00625 7.2 
L 63.00625 7.2 
z
" style="fill: #ffffff"/>
   </g>
   <g id="matplotlib.axis_1">
    <g id="xtick_1">
     <g id="line2d_1">
      <path d="M 101.051705 442.08 
L 101.051705 7.2 
" clip-path="url(#pf11cc80657)" style="fill: none; stroke: #b0b0b0; stroke-width: 0.8; stroke-linecap: square"/>
     </g>
     <g id="line2d_2">
      <defs>
       <path id="m39617a4c3e" d="M 0 0 
L 0 3.5 
" style="stroke: #000000; stroke-width: 0.8"/>
      </defs>
      <g>
       <use xlink:href="#m39617a4c3e" x="101.051705" y="442.08" style="stroke: #000000; stroke-width: 0.8"/>
      </g>
     </g>
     <g id="text_1">
      <!-- 450 -->
      <g transform="translate(91.507955 456.678437)scale(0.1 -0.1)">
       <defs>
        <path id="DejaVuSans-34" d="M 2419 4116 
L 825 1625 
L 2419 1625 
L 2419 4116 
z
M 2253 4666 
L 3047 4666 
L 3047 1625 
L 3713 1625 
L 3713 1100 
L 3047 1100 
L 3047 0 
L 2419 0 
L 2419 1100 
L 313 1100 
L 313 1709 
L 2253 4666 
z
" transform="scale(0.015625)"/>
        <path id="DejaVuSans-35" d="M 691 4666 
L 3169 4666 
L 3169 4134 
L 1269 4134 
L 1269 2991 
Q 1406 3038 1543 3061 
Q 1681 3084 1819 3084 
Q 2600 3084 3056 2656 
Q 3513 2228 3513 1497 
Q 3513 744 3044 326 
Q 2575 -91 1722 -91 
Q 1428 -91 1123 -41 
Q 819 9 494 109 
L 494 744 
Q 775 591 1075 516 
Q 1375 441 1709 441 
Q 2250 441 2565 725 
Q 2881 1009 2881 1497 
Q 2881 1984 2565 2268 
Q 2250 2553 1709 2553 
Q 1456 2553 1204 2497 
Q 953 2441 691 2322 
L 691 4666 
z
" transform="scale(0.015625)"/>
        <path id="DejaVuSans-30" d="M 2034 4250 
Q 1547 4250 1301 3770 
Q 1056 3291 1056 2328 
Q 1056 1369 1301 889 
Q 1547 409 2034 409 
Q 2525 409 2770 889 
Q 3016 1369 3016 2328 
Q 3016 3291 2770 3770 
Q 2525 4250 2034 4250 
z
M 2034 4750 
Q 2819 4750 3233 4129 
Q 3647 3509 3647 2328 
Q 3647 1150 3233 529 
Q 2819 -91 2034 -91 
Q 1250 -91 836 529 
Q 422 1150 422 2328 
Q 422 3509 836 4129 
Q 1250 4750 2034 4750 
z
" transform="scale(0.015625)"/>
       </defs>
       <use xlink:href="#DejaVuSans-34"/>
       <use xlink:href="#DejaVuSans-35" x="63.623047"/>
       <use xlink:href="#DejaVuSans-30" x="127.246094"/>
      </g>
     </g>
    </g>
    <g id="xtick_2">
     <g id="line2d_3">
      <path d="M 253.844695 442.08 
L 253.844695 7.2 
" clip-path="url(#pf11cc80657)" style="fill: none; stroke: #b0b0b0; stroke-width: 0.8; stroke-linecap: square"/>
     </g>
     <g id="line2d_4">
      <g>
       <use xlink:href="#m39617a4c3e" x="253.844695" y="442.08" style="stroke: #000000; stroke-width: 0.8"/>
      </g>
     </g>
     <g id="text_2">
      <!-- 500 -->
      <g transform="translate(244.300945 456.678437)scale(0.1 -0.1)">
       <use xlink:href="#DejaVuSans-35"/>
       <use xlink:href="#DejaVuSans-30" x="63.623047"/>
       <use xlink:href="#DejaVuSans-30" x="127.246094"/>
      </g>
     </g>
    </g>
    <g id="xtick_3">
     <g id="line2d_5">
      <path d="M 406.637685 442.08 
L 406.637685 7.2 
" clip-path="url(#pf11cc80657)" style="fill: none; stroke: #b0b0b0; stroke-width: 0.8; stroke-linecap: square"/>
     </g>
     <g id="line2d_6">
      <g>
       <use xlink:href="#m39617a4c3e" x="406.637685" y="442.08" style="stroke: #000000; stroke-width: 0.8"/>
      </g>
     </g>
     <g id="text_3">
      <!-- 550 -->
      <g transform="translate(397.093935 456.678437)scale(0.1 -0.1)">
       <use xlink:href="#DejaVuSans-35"/>
       <use xlink:href="#DejaVuSans-35" x="63.623047"/>
       <use xlink:href="#DejaVuSans-30" x="127.246094"/>
      </g>
     </g>
    </g>
    <g id="xtick_4">
     <g id="line2d_7">
      <path d="M 559.430675 442.08 
L 559.430675 7.2 
" clip-path="url(#pf11cc80657)" style="fill: none; stroke: #b0b0b0; stroke-width: 0.8; stroke-linecap: square"/>
     </g>
     <g id="line2d_8">
      <g>
       <use xlink:href="#m39617a4c3e" x="559.430675" y="442.08" style="stroke: #000000; stroke-width: 0.8"/>
      </g>
     </g>
     <g id="text_4">
      <!-- 600 -->
      <g transform="translate(549.886925 456.678437)scale(0.1 -0.1)">
       <defs>
        <path id="DejaVuSans-36" d="M 2113 2584 
Q 1688 2584 1439 2293 
Q 1191 2003 1191 1497 
Q 1191 994 1439 701 
Q 1688 409 2113 409 
Q 2538 409 2786 701 
Q 3034 994 3034 1497 
Q 3034 2003 2786 2293 
Q 2538 2584 2113 2584 
z
M 3366 4563 
L 3366 3988 
Q 3128 4100 2886 4159 
Q 2644 4219 2406 4219 
Q 1781 4219 1451 3797 
Q 1122 3375 1075 2522 
Q 1259 2794 1537 2939 
Q 1816 3084 2150 3084 
Q 2853 3084 3261 2657 
Q 3669 2231 3669 1497 
Q 3669 778 3244 343 
Q 2819 -91 2113 -91 
Q 1303 -91 875 529 
Q 447 1150 447 2328 
Q 447 3434 972 4092 
Q 1497 4750 2381 4750 
Q 2619 4750 2861 4703 
Q 3103 4656 3366 4563 
z
" transform="scale(0.015625)"/>
       </defs>
       <use xlink:href="#DejaVuSans-36"/>
       <use xlink:href="#DejaVuSans-30" x="63.623047"/>
       <use xlink:href="#DejaVuSans-30" x="127.246094"/>
      </g>
     </g>
    </g>
    <g id="xtick_5">
     <g id="line2d_9">
      <path d="M 712.223665 442.08 
L 712.223665 7.2 
" clip-path="url(#pf11cc80657)" style="fill: none; stroke: #b0b0b0; stroke-width: 0.8; stroke-linecap: square"/>
     </g>
     <g id="line2d_10">
      <g>
       <use xlink:href="#m39617a4c3e" x="712.223665" y="442.08" style="stroke: #000000; stroke-width: 0.8"/>
      </g>
     </g>
     <g id="text_5">
      <!-- 650 -->
      <g transform="translate(702.679915 456.678437)scale(0.1 -0.1)">
       <use xlink:href="#DejaVuSans-36"/>
       <use xlink:href="#DejaVuSans-35" x="63.623047"/>
       <use xlink:href="#DejaVuSans-30" x="127.246094"/>
      </g>
     </g>
    </g>
    <g id="xtick_6">
     <g id="line2d_11">
      <path d="M 865.016655 442.08 
L 865.016655 7.2 
" clip-path="url(#pf11cc80657)" style="fill: none; stroke: #b0b0b0; stroke-width: 0.8; stroke-linecap: square"/>
     </g>
     <g id="line2d_12">
      <g>
       <use xlink:href="#m39617a4c3e" x="865.016655" y="442.08" style="stroke: #000000; stroke-width: 0.8"/>
      </g>
     </g>
     <g id="text_6">
      <!-- 700 -->
      <g transform="translate(855.472905 456.678437)scale(0.1 -0.1)">
       <defs>
        <path id="DejaVuSans-37" d="M 525 4666 
L 3525 4666 
L 3525 4397 
L 1831 0 
L 1172 0 
L 2766 4134 
L 525 4134 
L 525 4666 
z
" transform="scale(0.015625)"/>
       </defs>
       <use xlink:href="#DejaVuSans-37"/>
       <use xlink:href="#DejaVuSans-30" x="63.623047"/>
       <use xlink:href="#DejaVuSans-30" x="127.246094"/>
      </g>
     </g>
    </g>
    <g id="text_7">
     <!-- X Position (pixels) -->
     <g transform="translate(392.695312 477.955)scale(0.2 -0.2)">
      <defs>
       <path id="DejaVuSans-58" d="M 403 4666 
L 1081 4666 
L 2241 2931 
L 3406 4666 
L 4084 4666 
L 2584 2425 
L 4184 0 
L 3506 0 
L 2194 1984 
L 872 0 
L 191 0 
L 1856 2491 
L 403 4666 
z
" transform="scale(0.015625)"/>
       <path id="DejaVuSans-20" transform="scale(0.015625)"/>
       <path id="DejaVuSans-50" d="M 1259 4147 
L 1259 2394 
L 2053 2394 
Q 2494 2394 2734 2622 
Q 2975 2850 2975 3272 
Q 2975 3691 2734 3919 
Q 2494 4147 2053 4147 
L 1259 4147 
z
M 628 4666 
L 2053 4666 
Q 2838 4666 3239 4311 
Q 3641 3956 3641 3272 
Q 3641 2581 3239 2228 
Q 2838 1875 2053 1875 
L 1259 1875 
L 1259 0 
L 628 0 
L 628 4666 
z
" transform="scale(0.015625)"/>
       <path id="DejaVuSans-6f" d="M 1959 3097 
Q 1497 3097 1228 2736 
Q 959 2375 959 1747 
Q 959 1119 1226 758 
Q 1494 397 1959 397 
Q 2419 397 2687 759 
Q 2956 1122 2956 1747 
Q 2956 2369 2687 2733 
Q 2419 3097 1959 3097 
z
M 1959 3584 
Q 2709 3584 3137 3096 
Q 3566 2609 3566 1747 
Q 3566 888 3137 398 
Q 2709 -91 1959 -91 
Q 1206 -91 779 398 
Q 353 888 353 1747 
Q 353 2609 779 3096 
Q 1206 3584 1959 3584 
z
" transform="scale(0.015625)"/>
       <path id="DejaVuSans-73" d="M 2834 3397 
L 2834 2853 
Q 2591 2978 2328 3040 
Q 2066 3103 1784 3103 
Q 1356 3103 1142 2972 
Q 928 2841 928 2578 
Q 928 2378 1081 2264 
Q 1234 2150 1697 2047 
L 1894 2003 
Q 2506 1872 2764 1633 
Q 3022 1394 3022 966 
Q 3022 478 2636 193 
Q 2250 -91 1575 -91 
Q 1294 -91 989 -36 
Q 684 19 347 128 
L 347 722 
Q 666 556 975 473 
Q 1284 391 1588 391 
Q 1994 391 2212 530 
Q 2431 669 2431 922 
Q 2431 1156 2273 1281 
Q 2116 1406 1581 1522 
L 1381 1569 
Q 847 1681 609 1914 
Q 372 2147 372 2553 
Q 372 3047 722 3315 
Q 1072 3584 1716 3584 
Q 2034 3584 2315 3537 
Q 2597 3491 2834 3397 
z
" transform="scale(0.015625)"/>
       <path id="DejaVuSans-69" d="M 603 3500 
L 1178 3500 
L 1178 0 
L 603 0 
L 603 3500 
z
M 603 4863 
L 1178 4863 
L 1178 4134 
L 603 4134 
L 603 4863 
z
" transform="scale(0.015625)"/>
       <path id="DejaVuSans-74" d="M 1172 4494 
L 1172 3500 
L 2356 3500 
L 2356 3053 
L 1172 3053 
L 1172 1153 
Q 1172 725 1289 603 
Q 1406 481 1766 481 
L 2356 481 
L 2356 0 
L 1766 0 
Q 1100 0 847 248 
Q 594 497 594 1153 
L 594 3053 
L 172 3053 
L 172 3500 
L 594 3500 
L 594 4494 
L 1172 4494 
z
" transform="scale(0.015625)"/>
       <path id="DejaVuSans-6e" d="M 3513 2113 
L 3513 0 
L 2938 0 
L 2938 2094 
Q 2938 2591 2744 2837 
Q 2550 3084 2163 3084 
Q 1697 3084 1428 2787 
Q 1159 2491 1159 1978 
L 1159 0 
L 581 0 
L 581 3500 
L 1159 3500 
L 1159 2956 
Q 1366 3272 1645 3428 
Q 1925 3584 2291 3584 
Q 2894 3584 3203 3211 
Q 3513 2838 3513 2113 
z
" transform="scale(0.015625)"/>
       <path id="DejaVuSans-28" d="M 1984 4856 
Q 1566 4138 1362 3434 
Q 1159 2731 1159 2009 
Q 1159 1288 1364 580 
Q 1569 -128 1984 -844 
L 1484 -844 
Q 1016 -109 783 600 
Q 550 1309 550 2009 
Q 550 2706 781 3412 
Q 1013 4119 1484 4856 
L 1984 4856 
z
" transform="scale(0.015625)"/>
       <path id="DejaVuSans-70" d="M 1159 525 
L 1159 -1331 
L 581 -1331 
L 581 3500 
L 1159 3500 
L 1159 2969 
Q 1341 3281 1617 3432 
Q 1894 3584 2278 3584 
Q 2916 3584 3314 3078 
Q 3713 2572 3713 1747 
Q 3713 922 3314 415 
Q 2916 -91 2278 -91 
Q 1894 -91 1617 61 
Q 1341 213 1159 525 
z
M 3116 1747 
Q 3116 2381 2855 2742 
Q 2594 3103 2138 3103 
Q 1681 3103 1420 2742 
Q 1159 2381 1159 1747 
Q 1159 1113 1420 752 
Q 1681 391 2138 391 
Q 2594 391 2855 752 
Q 3116 1113 3116 1747 
z
" transform="scale(0.015625)"/>
       <path id="DejaVuSans-78" d="M 3513 3500 
L 2247 1797 
L 3578 0 
L 2900 0 
L 1881 1375 
L 863 0 
L 184 0 
L 1544 1831 
L 300 3500 
L 978 3500 
L 1906 2253 
L 2834 3500 
L 3513 3500 
z
" transform="scale(0.015625)"/>
       <path id="DejaVuSans-65" d="M 3597 1894 
L 3597 1613 
L 953 1613 
Q 991 1019 1311 708 
Q 1631 397 2203 397 
Q 2534 397 2845 478 
Q 3156 559 3463 722 
L 3463 178 
Q 3153 47 2828 -22 
Q 2503 -91 2169 -91 
Q 1331 -91 842 396 
Q 353 884 353 1716 
Q 353 2575 817 3079 
Q 1281 3584 2069 3584 
Q 2775 3584 3186 3129 
Q 3597 2675 3597 1894 
z
M 3022 2063 
Q 3016 2534 2758 2815 
Q 2500 3097 2075 3097 
Q 1594 3097 1305 2825 
Q 1016 2553 972 2059 
L 3022 2063 
z
" transform="scale(0.015625)"/>
       <path id="DejaVuSans-6c" d="M 603 4863 
L 1178 4863 
L 1178 0 
L 603 0 
L 603 4863 
z
" transform="scale(0.015625)"/>
       <path id="DejaVuSans-29" d="M 513 4856 
L 1013 4856 
Q 1481 4119 1714 3412 
Q 1947 2706 1947 2009 
Q 1947 1309 1714 600 
Q 1481 -109 1013 -844 
L 513 -844 
Q 928 -128 1133 580 
Q 1338 1288 1338 2009 
Q 1338 2731 1133 3434 
Q 928 4138 513 4856 
z
" transform="scale(0.015625)"/>
      </defs>
      <use xlink:href="#DejaVuSans-58"/>
      <use xlink:href="#DejaVuSans-20" x="68.505859"/>
      <use xlink:href="#DejaVuSans-50" x="100.292969"/>
      <use xlink:href="#DejaVuSans-6f" x="156.970703"/>
      <use xlink:href="#DejaVuSans-73" x="218.152344"/>
      <use xlink:href="#DejaVuSans-69" x="270.251953"/>
      <use xlink:href="#DejaVuSans-74" x="298.035156"/>
      <use xlink:href="#DejaVuSans-69" x="337.244141"/>
      <use xlink:href="#DejaVuSans-6f" x="365.027344"/>
      <use xlink:href="#DejaVuSans-6e" x="426.208984"/>
      <use xlink:href="#DejaVuSans-20" x="489.587891"/>
      <use xlink:href="#DejaVuSans-28" x="521.375"/>
      <use xlink:href="#DejaVuSans-70" x="560.388672"/>
      <use xlink:href="#DejaVuSans-69" x="623.865234"/>
      <use xlink:href="#DejaVuSans-78" x="651.648438"/>
      <use xlink:href="#DejaVuSans-65" x="707.703125"/>
      <use xlink:href="#DejaVuSans-6c" x="769.226562"/>
      <use xlink:href="#DejaVuSans-73" x="797.009766"/>
      <use xlink:href="#DejaVuSans-29" x="849.109375"/>
     </g>
    </g>
   </g>
   <g id="matplotlib.axis_2">
    <g id="ytick_1">
     <g id="line2d_13">
      <path d="M 63.00625 380.26182 
L 900.00625 380.26182 
" clip-path="url(#pf11cc80657)" style="fill: none; stroke: #b0b0b0; stroke-width: 0.8; stroke-linecap: square"/>
     </g>
     <g id="line2d_14">
      <defs>
       <path id="m54fb31dfd0" d="M 0 0 
L -3.5 0 
" style="stroke: #000000; stroke-width: 0.8"/>
      </defs>
      <g>
       <use xlink:href="#m54fb31dfd0" x="63.00625" y="380.26182" style="stroke: #000000; stroke-width: 0.8"/>
      </g>
     </g>
     <g id="text_8">
      <!-- 0 -->
      <g transform="translate(49.64375 384.061038)scale(0.1 -0.1)">
       <use xlink:href="#DejaVuSans-30"/>
      </g>
     </g>
    </g>
    <g id="ytick_2">
     <g id="line2d_15">
      <path d="M 63.00625 307.387532 
L 900.00625 307.387532 
" clip-path="url(#pf11cc80657)" style="fill: none; stroke: #b0b0b0; stroke-width: 0.8; stroke-linecap: square"/>
     </g>
     <g id="line2d_16">
      <g>
       <use xlink:href="#m54fb31dfd0" x="63.00625" y="307.387532" style="stroke: #000000; stroke-width: 0.8"/>
      </g>
     </g>
     <g id="text_9">
      <!-- 500 -->
      <g transform="translate(36.91875 311.186751)scale(0.1 -0.1)">
       <use xlink:href="#DejaVuSans-35"/>
       <use xlink:href="#DejaVuSans-30" x="63.623047"/>
       <use xlink:href="#DejaVuSans-30" x="127.246094"/>
      </g>
     </g>
    </g>
    <g id="ytick_3">
     <g id="line2d_17">
      <path d="M 63.00625 234.513244 
L 900.00625 234.513244 
" clip-path="url(#pf11cc80657)" style="fill: none; stroke: #b0b0b0; stroke-width: 0.8; stroke-linecap: square"/>
     </g>
     <g id="line2d_18">
      <g>
       <use xlink:href="#m54fb31dfd0" x="63.00625" y="234.513244" style="stroke: #000000; stroke-width: 0.8"/>
      </g>
     </g>
     <g id="text_10">
      <!-- 1000 -->
      <g transform="translate(30.55625 238.312463)scale(0.1 -0.1)">
       <defs>
        <path id="DejaVuSans-31" d="M 794 531 
L 1825 531 
L 1825 4091 
L 703 3866 
L 703 4441 
L 1819 4666 
L 2450 4666 
L 2450 531 
L 3481 531 
L 3481 0 
L 794 0 
L 794 531 
z
" transform="scale(0.015625)"/>
       </defs>
       <use xlink:href="#DejaVuSans-31"/>
       <use xlink:href="#DejaVuSans-30" x="63.623047"/>
       <use xlink:href="#DejaVuSans-30" x="127.246094"/>
       <use xlink:href="#DejaVuSans-30" x="190.869141"/>
      </g>
     </g>
    </g>
    <g id="ytick_4">
     <g id="line2d_19">
      <path d="M 63.00625 161.638956 
L 900.00625 161.638956 
" clip-path="url(#pf11cc80657)" style="fill: none; stroke: #b0b0b0; stroke-width: 0.8; stroke-linecap: square"/>
     </g>
     <g id="line2d_20">
      <g>
       <use xlink:href="#m54fb31dfd0" x="63.00625" y="161.638956" style="stroke: #000000; stroke-width: 0.8"/>
      </g>
     </g>
     <g id="text_11">
      <!-- 1500 -->
      <g transform="translate(30.55625 165.438175)scale(0.1 -0.1)">
       <use xlink:href="#DejaVuSans-31"/>
       <use xlink:href="#DejaVuSans-35" x="63.623047"/>
       <use xlink:href="#DejaVuSans-30" x="127.246094"/>
       <use xlink:href="#DejaVuSans-30" x="190.869141"/>
      </g>
     </g>
    </g>
    <g id="ytick_5">
     <g id="line2d_21">
      <path d="M 63.00625 88.764669 
L 900.00625 88.764669 
" clip-path="url(#pf11cc80657)" style="fill: none; stroke: #b0b0b0; stroke-width: 0.8; stroke-linecap: square"/>
     </g>
     <g id="line2d_22">
      <g>
       <use xlink:href="#m54fb31dfd0" x="63.00625" y="88.764669" style="stroke: #000000; stroke-width: 0.8"/>
      </g>
     </g>
     <g id="text_12">
      <!-- 2000 -->
      <g transform="translate(30.55625 92.563887)scale(0.1 -0.1)">
       <defs>
        <path id="DejaVuSans-32" d="M 1228 531 
L 3431 531 
L 3431 0 
L 469 0 
L 469 531 
Q 828 903 1448 1529 
Q 2069 2156 2228 2338 
Q 2531 2678 2651 2914 
Q 2772 3150 2772 3378 
Q 2772 3750 2511 3984 
Q 2250 4219 1831 4219 
Q 1534 4219 1204 4116 
Q 875 4013 500 3803 
L 500 4441 
Q 881 4594 1212 4672 
Q 1544 4750 1819 4750 
Q 2544 4750 2975 4387 
Q 3406 4025 3406 3419 
Q 3406 3131 3298 2873 
Q 3191 2616 2906 2266 
Q 2828 2175 2409 1742 
Q 1991 1309 1228 531 
z
" transform="scale(0.015625)"/>
       </defs>
       <use xlink:href="#DejaVuSans-32"/>
       <use xlink:href="#DejaVuSans-30" x="63.623047"/>
       <use xlink:href="#DejaVuSans-30" x="127.246094"/>
       <use xlink:href="#DejaVuSans-30" x="190.869141"/>
      </g>
     </g>
    </g>
    <g id="ytick_6">
     <g id="line2d_23">
      <path d="M 63.00625 15.890381 
L 900.00625 15.890381 
" clip-path="url(#pf11cc80657)" style="fill: none; stroke: #b0b0b0; stroke-width: 0.8; stroke-linecap: square"/>
     </g>
     <g id="line2d_24">
      <g>
       <use xlink:href="#m54fb31dfd0" x="63.00625" y="15.890381" style="stroke: #000000; stroke-width: 0.8"/>
      </g>
     </g>
     <g id="text_13">
      <!-- 2500 -->
      <g transform="translate(30.55625 19.6896)scale(0.1 -0.1)">
       <use xlink:href="#DejaVuSans-32"/>
       <use xlink:href="#DejaVuSans-35" x="63.623047"/>
       <use xlink:href="#DejaVuSans-30" x="127.246094"/>
       <use xlink:href="#DejaVuSans-30" x="190.869141"/>
      </g>
     </g>
    </g>
    <g id="text_14">
     <!-- Events -->
     <g transform="translate(22.396875 258.497812)rotate(-90)scale(0.2 -0.2)">
      <defs>
       <path id="DejaVuSans-45" d="M 628 4666 
L 3578 4666 
L 3578 4134 
L 1259 4134 
L 1259 2753 
L 3481 2753 
L 3481 2222 
L 1259 2222 
L 1259 531 
L 3634 531 
L 3634 0 
L 628 0 
L 628 4666 
z
" transform="scale(0.015625)"/>
       <path id="DejaVuSans-76" d="M 191 3500 
L 800 3500 
L 1894 563 
L 2988 3500 
L 3597 3500 
L 2284 0 
L 1503 0 
L 191 3500 
z
" transform="scale(0.015625)"/>
      </defs>
      <use xlink:href="#DejaVuSans-45"/>
      <use xlink:href="#DejaVuSans-76" x="63.183594"/>
      <use xlink:href="#DejaVuSans-65" x="122.363281"/>
      <use xlink:href="#DejaVuSans-6e" x="183.886719"/>
      <use xlink:href="#DejaVuSans-74" x="247.265625"/>
      <use xlink:href="#DejaVuSans-73" x="286.474609"/>
     </g>
    </g>
   </g>
   <g id="patch_3">
    <path d="M 101.051705 380.26182 
L 101.051705 372.974391 
L 104.107564 372.974391 
L 104.107564 373.265888 
L 107.163424 373.265888 
L 107.163424 371.662654 
L 110.219284 371.662654 
L 110.219284 373.994631 
L 113.275144 373.994631 
L 113.275144 372.245648 
L 116.331004 372.245648 
L 116.331004 373.557385 
L 119.386863 373.557385 
L 119.386863 371.954151 
L 122.442723 371.954151 
L 122.442723 372.974391 
L 125.498583 372.974391 
L 125.498583 373.120139 
L 128.554443 373.120139 
L 128.554443 372.391397 
L 131.610303 372.391397 
L 131.610303 372.099899 
L 134.666162 372.099899 
L 134.666162 370.933911 
L 137.722022 370.933911 
L 137.722022 369.184928 
L 140.777882 369.184928 
L 140.777882 370.788162 
L 143.833742 370.788162 
L 143.833742 371.954151 
L 146.889602 371.954151 
L 146.889602 372.537145 
L 149.945461 372.537145 
L 149.945461 373.848882 
L 153.001321 373.848882 
L 153.001321 371.371157 
L 156.057181 371.371157 
L 156.057181 372.391397 
L 159.113041 372.391397 
L 159.113041 372.537145 
L 162.168901 372.537145 
L 162.168901 371.079659 
L 165.22476 371.079659 
L 165.22476 371.371157 
L 168.28062 371.371157 
L 168.28062 369.184928 
L 171.33648 369.184928 
L 171.33648 370.788162 
L 174.39234 370.788162 
L 174.39234 373.848882 
L 177.4482 373.848882 
L 177.4482 368.018939 
L 180.504059 368.018939 
L 180.504059 370.059419 
L 183.559919 370.059419 
L 183.559919 372.828642 
L 186.615779 372.828642 
L 186.615779 370.642414 
L 189.671639 370.642414 
L 189.671639 370.788162 
L 192.727499 370.788162 
L 192.727499 369.913671 
L 195.783358 369.913671 
L 195.783358 370.205168 
L 198.839218 370.205168 
L 198.839218 373.411637 
L 201.895078 373.411637 
L 201.895078 371.371157 
L 208.006798 371.371157 
L 208.006798 370.788162 
L 211.062657 370.788162 
L 211.062657 370.933911 
L 214.118517 370.933911 
L 214.118517 371.225408 
L 217.174377 371.225408 
L 217.174377 370.642414 
L 220.230237 370.642414 
L 220.230237 371.079659 
L 223.286097 371.079659 
L 223.286097 366.998699 
L 226.341956 366.998699 
L 226.341956 369.913671 
L 232.453676 369.913671 
L 232.453676 368.747682 
L 235.509536 368.747682 
L 235.509536 371.079659 
L 238.565396 371.079659 
L 238.565396 368.018939 
L 241.621255 368.018939 
L 241.621255 368.310436 
L 244.677115 368.310436 
L 244.677115 366.707202 
L 247.732975 366.707202 
L 247.732975 371.662654 
L 250.788835 371.662654 
L 250.788835 367.290196 
L 253.844695 367.290196 
L 253.844695 368.893431 
L 256.900554 368.893431 
L 256.900554 368.164688 
L 259.956414 368.164688 
L 259.956414 369.039179 
L 266.068134 369.039179 
L 266.068134 370.788162 
L 269.123994 370.788162 
L 269.123994 368.018939 
L 272.179854 368.018939 
L 272.179854 370.642414 
L 275.235713 370.642414 
L 275.235713 370.059419 
L 278.291573 370.059419 
L 278.291573 365.832711 
L 281.347433 365.832711 
L 281.347433 368.018939 
L 284.403293 368.018939 
L 284.403293 355.338813 
L 287.459153 355.338813 
L 287.459153 319.630412 
L 290.515012 319.630412 
L 290.515012 249.379599 
L 293.570872 249.379599 
L 293.570872 177.234054 
L 296.626732 177.234054 
L 296.626732 123.598578 
L 299.682592 123.598578 
L 299.682592 112.521687 
L 302.738452 112.521687 
L 302.738452 105.088509 
L 305.794311 105.088509 
L 305.794311 100.570303 
L 308.850171 100.570303 
L 308.850171 87.452932 
L 311.906031 87.452932 
L 311.906031 80.019754 
L 314.961891 80.019754 
L 314.961891 92.69988 
L 318.017751 92.69988 
L 318.017751 93.574372 
L 321.07361 93.574372 
L 321.07361 84.392211 
L 324.12947 84.392211 
L 324.12947 94.594612 
L 327.18533 94.594612 
L 327.18533 75.210051 
L 330.24119 75.210051 
L 330.24119 84.53796 
L 333.29705 84.53796 
L 333.29705 64.424657 
L 336.352909 64.424657 
L 336.352909 81.331491 
L 339.408769 81.331491 
L 339.408769 85.849697 
L 342.464629 85.849697 
L 342.464629 72.003583 
L 345.520489 72.003583 
L 345.520489 75.793046 
L 348.576349 75.793046 
L 348.576349 73.31532 
L 351.632208 73.31532 
L 351.632208 75.210051 
L 354.688068 75.210051 
L 354.688068 74.044063 
L 357.743928 74.044063 
L 357.743928 71.27484 
L 360.799788 71.27484 
L 360.799788 63.841662 
L 363.855648 63.841662 
L 363.855648 63.550165 
L 366.911507 63.550165 
L 366.911507 66.465137 
L 369.967367 66.465137 
L 369.967367 73.023823 
L 373.023227 73.023823 
L 373.023227 49.558302 
L 376.079087 49.558302 
L 376.079087 51.015788 
L 379.134947 51.015788 
L 379.134947 68.797114 
L 382.190806 68.797114 
L 382.190806 64.278908 
L 385.246666 64.278908 
L 385.246666 55.096748 
L 388.302526 55.096748 
L 388.302526 61.072439 
L 391.358386 61.072439 
L 391.358386 54.076508 
L 394.414246 54.076508 
L 394.414246 67.922622 
L 397.470105 67.922622 
L 397.470105 47.955068 
L 400.525965 47.955068 
L 400.525965 31.922724 
L 403.581825 31.922724 
L 403.581825 47.809319 
L 406.637685 47.809319 
L 406.637685 54.659502 
L 409.693545 54.659502 
L 409.693545 42.853867 
L 412.749404 42.853867 
L 412.749404 53.202016 
L 415.805264 53.202016 
L 415.805264 53.493513 
L 418.861124 53.493513 
L 418.861124 64.570405 
L 421.916984 64.570405 
L 421.916984 45.185845 
L 424.972844 45.185845 
L 424.972844 36.878176 
L 428.028703 36.878176 
L 428.028703 49.849799 
L 431.084563 49.849799 
L 431.084563 46.351833 
L 434.140423 46.351833 
L 434.140423 38.044164 
L 437.196283 38.044164 
L 437.196283 59.177708 
L 440.252143 59.177708 
L 440.252143 51.744531 
L 443.308002 51.744531 
L 443.308002 39.355902 
L 446.363862 39.355902 
L 446.363862 48.68381 
L 449.419722 48.68381 
L 449.419722 26.967273 
L 452.475582 26.967273 
L 452.475582 45.477342 
L 455.531442 45.477342 
L 455.531442 35.42069 
L 458.587301 35.42069 
L 458.587301 40.52189 
L 461.643161 40.52189 
L 461.643161 44.894348 
L 464.699021 44.894348 
L 464.699021 49.849799 
L 467.754881 49.849799 
L 467.754881 45.331593 
L 470.810741 45.331593 
L 470.810741 62.529925 
L 473.8666 62.529925 
L 473.8666 74.044063 
L 476.92246 74.044063 
L 476.92246 80.748497 
L 479.97832 80.748497 
L 479.97832 131.177504 
L 483.03418 131.177504 
L 483.03418 224.310844 
L 486.09004 224.310844 
L 486.09004 317.444184 
L 489.1459 317.444184 
L 489.1459 352.56959 
L 492.201759 352.56959 
L 492.201759 363.792231 
L 495.257619 363.792231 
L 495.257619 369.184928 
L 498.313479 369.184928 
L 498.313479 372.245648 
L 501.369339 372.245648 
L 501.369339 371.516905 
L 504.425199 371.516905 
L 504.425199 371.225408 
L 507.481058 371.225408 
L 507.481058 372.828642 
L 510.536918 372.828642 
L 510.536918 373.265888 
L 513.592778 373.265888 
L 513.592778 371.954151 
L 519.704498 371.954151 
L 519.704498 370.933911 
L 522.760357 370.933911 
L 522.760357 372.391397 
L 525.816217 372.391397 
L 525.816217 371.225408 
L 528.872077 371.225408 
L 528.872077 373.411637 
L 531.927937 373.411637 
L 531.927937 373.120139 
L 534.983797 373.120139 
L 534.983797 375.597865 
L 538.039656 375.597865 
L 538.039656 374.286128 
L 541.095516 374.286128 
L 541.095516 372.682894 
L 544.151376 372.682894 
L 544.151376 374.286128 
L 547.207236 374.286128 
L 547.207236 374.431877 
L 550.263096 374.431877 
L 550.263096 373.557385 
L 553.318955 373.557385 
L 553.318955 374.577625 
L 556.374815 374.577625 
L 556.374815 374.723374 
L 559.430675 374.723374 
L 559.430675 372.974391 
L 562.486535 372.974391 
L 562.486535 374.431877 
L 565.542395 374.431877 
L 565.542395 375.306368 
L 568.598254 375.306368 
L 568.598254 375.160619 
L 571.654114 375.160619 
L 571.654114 372.974391 
L 574.709974 372.974391 
L 574.709974 376.909602 
L 577.765834 376.909602 
L 577.765834 375.306368 
L 580.821694 375.306368 
L 580.821694 376.326608 
L 583.877553 376.326608 
L 583.877553 376.035111 
L 586.933413 376.035111 
L 586.933413 375.889362 
L 589.989273 375.889362 
L 589.989273 376.326608 
L 593.045133 376.326608 
L 593.045133 375.597865 
L 596.100993 375.597865 
L 596.100993 375.160619 
L 599.156852 375.160619 
L 599.156852 375.452117 
L 602.212712 375.452117 
L 602.212712 374.723374 
L 605.268572 374.723374 
L 605.268572 377.784094 
L 608.324432 377.784094 
L 608.324432 376.618105 
L 611.380292 376.618105 
L 611.380292 377.346848 
L 614.436151 377.346848 
L 614.436151 377.055351 
L 617.492011 377.055351 
L 617.492011 376.618105 
L 620.547871 376.618105 
L 620.547871 377.638345 
L 623.603731 377.638345 
L 623.603731 378.804334 
L 626.659591 378.804334 
L 626.659591 377.346848 
L 629.71545 377.346848 
L 629.71545 377.638345 
L 632.77131 377.638345 
L 632.77131 377.929842 
L 635.82717 377.929842 
L 635.82717 378.22134 
L 638.88303 378.22134 
L 638.88303 378.804334 
L 641.93889 378.804334 
L 641.93889 379.095831 
L 644.994749 379.095831 
L 644.994749 379.387328 
L 648.050609 379.387328 
L 648.050609 377.784094 
L 651.106469 377.784094 
L 651.106469 379.095831 
L 654.162329 379.095831 
L 654.162329 378.804334 
L 660.274048 378.804334 
L 660.274048 379.387328 
L 663.329908 379.387328 
L 663.329908 378.658585 
L 666.385768 378.658585 
L 666.385768 378.512837 
L 669.441628 378.512837 
L 669.441628 379.24158 
L 672.497488 379.24158 
L 672.497488 379.095831 
L 675.553347 379.095831 
L 675.553347 379.24158 
L 678.609207 379.24158 
L 678.609207 379.678825 
L 681.665067 379.678825 
L 681.665067 379.095831 
L 684.720927 379.095831 
L 684.720927 379.533077 
L 687.776787 379.533077 
L 687.776787 379.678825 
L 690.832646 379.678825 
L 690.832646 380.116071 
L 693.888506 380.116071 
L 693.888506 379.533077 
L 696.944366 379.533077 
L 696.944366 379.970322 
L 700.000226 379.970322 
L 700.000226 379.678825 
L 703.056086 379.678825 
L 703.056086 379.533077 
L 706.111946 379.533077 
L 706.111946 380.116071 
L 709.167805 380.116071 
L 709.167805 379.824574 
L 715.279525 379.824574 
L 715.279525 379.387328 
L 721.391245 379.387328 
L 721.391245 379.970322 
L 724.447104 379.970322 
L 724.447104 379.387328 
L 727.502964 379.387328 
L 727.502964 379.824574 
L 730.558824 379.824574 
L 730.558824 379.678825 
L 733.614684 379.678825 
L 733.614684 380.116071 
L 736.670544 380.116071 
L 736.670544 379.678825 
L 739.726403 379.678825 
L 739.726403 380.116071 
L 742.782263 380.116071 
L 742.782263 379.678825 
L 745.838123 379.678825 
L 745.838123 380.116071 
L 748.893983 380.116071 
L 748.893983 379.970322 
L 751.949843 379.970322 
L 751.949843 379.824574 
L 755.005702 379.824574 
L 755.005702 380.116071 
L 770.285001 380.116071 
L 770.285001 379.970322 
L 773.340861 379.970322 
L 773.340861 380.116071 
L 776.396721 380.116071 
L 776.396721 380.26182 
L 791.67602 380.26182 
L 791.67602 380.116071 
L 794.73188 380.116071 
L 794.73188 380.26182 
L 797.78774 380.26182 
L 797.78774 380.116071 
L 800.843599 380.116071 
L 800.843599 380.26182 
L 813.067039 380.26182 
L 813.067039 380.116071 
L 822.234618 380.116071 
L 822.234618 380.26182 
L 828.346338 380.26182 
L 828.346338 380.116071 
L 831.402197 380.116071 
L 831.402197 380.26182 
L 855.849076 380.26182 
L 855.849076 380.116071 
L 861.960795 380.116071 
L 861.960795 380.26182 
L 861.960795 380.26182 
" clip-path="url(#pf11cc80657)" style="fill: none; stroke: #1f77b4; stroke-linejoin: miter"/>
   </g>
   <g id="line2d_25">
    <path d="M 102.579634 372.58702 
L 114.803074 372.930058 
L 120.914793 372.86808 
L 127.026513 372.498597 
L 136.194092 371.704103 
L 139.249952 371.627131 
L 145.361672 371.857708 
L 151.473391 372.129907 
L 157.585111 372.002681 
L 172.86441 371.171459 
L 182.031989 371.0139 
L 191.199569 371.053407 
L 206.478868 371.356425 
L 212.590587 371.04604 
L 230.925746 369.62673 
L 243.149185 369.031803 
L 249.260905 368.971317 
L 264.540204 369.057393 
L 267.596064 368.749433 
L 270.651924 367.742935 
L 273.707783 365.242665 
L 276.763643 359.959857 
L 279.819503 350.153584 
L 282.875363 334.01655 
L 285.931223 310.435131 
L 288.987082 279.83382 
L 298.154662 175.224751 
L 301.210522 147.908748 
L 304.266381 127.44899 
L 307.322241 113.333566 
L 310.378101 104.247517 
L 313.433961 98.725364 
L 316.489821 95.46124 
L 319.54568 93.383751 
L 325.6574 89.978896 
L 331.76912 86.377933 
L 334.824979 84.86624 
L 337.880839 83.658857 
L 347.048419 80.558473 
L 350.104278 79.343455 
L 353.160138 77.995254 
L 359.271858 74.906896 
L 368.439437 69.949766 
L 371.495297 68.543987 
L 374.551157 67.406149 
L 377.607017 66.555076 
L 383.718736 65.279249 
L 386.774596 64.452256 
L 389.830456 63.238388 
L 392.886316 61.561243 
L 398.998035 57.444825 
L 402.053895 55.746816 
L 405.109755 54.789264 
L 408.165615 54.665623 
L 411.221475 55.141119 
L 414.277334 55.754045 
L 417.333194 56.031293 
L 420.389054 55.715896 
L 423.444914 54.886008 
L 426.500774 53.881522 
L 429.556633 53.071071 
L 432.612493 52.612819 
L 438.724213 52.028146 
L 441.780073 51.322936 
L 444.835932 50.232238 
L 447.891792 49.017729 
L 450.947652 48.110835 
L 454.003512 47.937752 
L 457.059372 48.814422 
L 460.115231 50.994736 
L 463.171091 54.86679 
L 466.226951 61.211797 
L 469.282811 71.380747 
L 472.338671 87.202475 
L 475.39453 110.460415 
L 478.45039 141.965596 
L 481.50625 180.61689 
L 487.61797 264.718705 
L 490.673829 300.925786 
L 493.729689 328.915823 
L 496.785549 348.177342 
L 499.841409 360.022253 
L 502.897269 366.567421 
L 505.953128 369.835591 
L 509.008988 371.310008 
L 512.064848 371.898829 
L 515.120708 372.097627 
L 521.232427 372.257436 
L 527.344147 372.722099 
L 536.511726 373.699042 
L 542.623446 374.005903 
L 564.014465 374.597178 
L 573.182044 375.161608 
L 582.349623 375.790831 
L 588.461343 375.941228 
L 597.628923 375.924709 
L 603.740642 376.201372 
L 622.075801 377.536852 
L 646.522679 378.733521 
L 658.746119 378.912076 
L 674.025418 379.16023 
L 695.416436 379.727054 
L 707.639875 379.774884 
L 725.975034 379.718583 
L 765.701212 380.103848 
L 814.594969 380.193812 
L 860.432866 380.198188 
L 860.432866 380.198188 
" clip-path="url(#pf11cc80657)" style="fill: none; stroke: #ff7f0e; stroke-width: 1.5; stroke-linecap: square"/>
   </g>
   <g id="line2d_26">
    <path d="M 102.579634 380.371662 
L 114.803074 380.284525 
L 133.138232 380.009333 
L 145.361672 380.428578 
L 151.473391 380.307259 
L 160.640971 380.064727 
L 172.86441 380.172691 
L 200.367148 380.335159 
L 218.702307 379.98456 
L 243.149185 380.17833 
L 255.372625 380.295181 
L 261.484344 380.262644 
L 264.540204 380.089924 
L 267.596064 379.604591 
L 270.651924 378.508436 
L 273.707783 376.37028 
L 276.763643 372.717279 
L 279.819503 367.290166 
L 282.875363 360.402593 
L 285.931223 353.170454 
L 288.987082 347.323187 
L 292.042942 344.532284 
L 295.098802 345.595263 
L 298.154662 350.028819 
L 304.266381 362.974229 
L 307.322241 368.661083 
L 310.378101 372.957718 
L 313.433961 375.868681 
L 316.489821 377.591013 
L 319.54568 378.382068 
L 322.60154 378.559392 
L 328.71326 378.461338 
L 331.76912 378.621517 
L 337.880839 379.149237 
L 340.936699 379.254987 
L 347.048419 379.110951 
L 359.271858 378.618389 
L 365.383577 378.624068 
L 371.495297 378.990011 
L 377.607017 379.511952 
L 380.662877 379.623906 
L 383.718736 379.534741 
L 386.774596 379.241389 
L 392.886316 378.405795 
L 395.942176 378.203611 
L 398.998035 378.372058 
L 402.053895 378.934039 
L 408.165615 380.437747 
L 411.221475 380.806031 
L 414.277334 380.706907 
L 423.444914 379.344633 
L 426.500774 379.354351 
L 432.612493 379.911331 
L 435.668353 379.969483 
L 438.724213 379.738241 
L 441.780073 379.363866 
L 444.835932 379.109216 
L 447.891792 379.201118 
L 450.947652 379.721831 
L 454.003512 380.613613 
L 457.059372 381.790312 
L 460.115231 383.288004 
L 463.171091 385.37035 
L 466.226951 388.518798 
L 469.282811 393.257159 
L 472.338671 399.801654 
L 478.45039 415.340057 
L 481.50625 420.83281 
L 484.56211 422.312727 
L 487.61797 419.170924 
L 490.673829 412.360378 
L 493.729689 403.887598 
L 496.785549 395.815035 
L 499.841409 389.456859 
L 502.897269 385.168488 
L 505.953128 382.633113 
L 509.008988 381.293439 
L 512.064848 380.655629 
L 515.120708 380.396868 
L 521.232427 380.396001 
L 530.400007 380.609893 
L 539.567586 380.41525 
L 548.735166 380.326986 
L 570.126184 380.465722 
L 579.293764 380.460467 
L 594.573063 380.25972 
L 609.852362 380.514687 
L 658.746119 380.291027 
L 860.432866 380.25532 
L 860.432866 380.25532 
" clip-path="url(#pf11cc80657)" style="fill: none; stroke: #2ca02c; stroke-width: 1.5; stroke-linecap: square"/>
   </g>
   <g id="line2d_27">
    <path d="M 292.042942 442.08 
L 292.042942 7.2 
" clip-path="url(#pf11cc80657)" style="fill: none; stroke-dasharray: 9.6,2.4,1.5,2.4; stroke-dashoffset: 0; stroke: #ff0000; stroke-width: 1.5"/>
   </g>
   <g id="line2d_28">
    <path d="M 484.56211 442.08 
L 484.56211 7.2 
" clip-path="url(#pf11cc80657)" style="fill: none; stroke-dasharray: 9.6,2.4,1.5,2.4; stroke-dashoffset: 0; stroke: #008000; stroke-width: 1.5"/>
   </g>
   <g id="patch_4">
    <path d="M 63.00625 442.08 
L 63.00625 7.2 
" style="fill: none; stroke: #000000; stroke-width: 0.8; stroke-linejoin: miter; stroke-linecap: square"/>
   </g>
   <g id="patch_5">
    <path d="M 900.00625 442.08 
L 900.00625 7.2 
" style="fill: none; stroke: #000000; stroke-width: 0.8; stroke-linejoin: miter; stroke-linecap: square"/>
   </g>
   <g id="patch_6">
    <path d="M 63.00625 442.08 
L 900.00625 442.08 
" style="fill: none; stroke: #000000; stroke-width: 0.8; stroke-linejoin: miter; stroke-linecap: square"/>
   </g>
   <g id="patch_7">
    <path d="M 63.00625 7.2 
L 900.00625 7.2 
" style="fill: none; stroke: #000000; stroke-width: 0.8; stroke-linejoin: miter; stroke-linecap: square"/>
   </g>
   <g id="legend_1">
    <g id="patch_8">
     <path d="M 596.86625 137.425 
L 888.80625 137.425 
Q 892.00625 137.425 892.00625 134.225 
L 892.00625 18.4 
Q 892.00625 15.2 888.80625 15.2 
L 596.86625 15.2 
Q 593.66625 15.2 593.66625 18.4 
L 593.66625 134.225 
Q 593.66625 137.425 596.86625 137.425 
z
" style="fill: #ffffff; opacity: 0.8; stroke: #cccccc; stroke-linejoin: miter"/>
    </g>
    <g id="patch_9">
     <path d="M 600.06625 33.7575 
L 632.06625 33.7575 
L 632.06625 22.5575 
L 600.06625 22.5575 
L 600.06625 33.7575 
z
" style="fill: none; stroke: #1f77b4; stroke-linejoin: miter"/>
    </g>
    <g id="text_15">
     <!-- Xtr sensor: IMEv3-W12-C3-1-4 -->
     <g transform="translate(644.86625 33.7575)scale(0.16 -0.16)">
      <defs>
       <path id="DejaVuSans-72" d="M 2631 2963 
Q 2534 3019 2420 3045 
Q 2306 3072 2169 3072 
Q 1681 3072 1420 2755 
Q 1159 2438 1159 1844 
L 1159 0 
L 581 0 
L 581 3500 
L 1159 3500 
L 1159 2956 
Q 1341 3275 1631 3429 
Q 1922 3584 2338 3584 
Q 2397 3584 2469 3576 
Q 2541 3569 2628 3553 
L 2631 2963 
z
" transform="scale(0.015625)"/>
       <path id="DejaVuSans-3a" d="M 750 794 
L 1409 794 
L 1409 0 
L 750 0 
L 750 794 
z
M 750 3309 
L 1409 3309 
L 1409 2516 
L 750 2516 
L 750 3309 
z
" transform="scale(0.015625)"/>
       <path id="DejaVuSans-49" d="M 628 4666 
L 1259 4666 
L 1259 0 
L 628 0 
L 628 4666 
z
" transform="scale(0.015625)"/>
       <path id="DejaVuSans-4d" d="M 628 4666 
L 1569 4666 
L 2759 1491 
L 3956 4666 
L 4897 4666 
L 4897 0 
L 4281 0 
L 4281 4097 
L 3078 897 
L 2444 897 
L 1241 4097 
L 1241 0 
L 628 0 
L 628 4666 
z
" transform="scale(0.015625)"/>
       <path id="DejaVuSans-33" d="M 2597 2516 
Q 3050 2419 3304 2112 
Q 3559 1806 3559 1356 
Q 3559 666 3084 287 
Q 2609 -91 1734 -91 
Q 1441 -91 1130 -33 
Q 819 25 488 141 
L 488 750 
Q 750 597 1062 519 
Q 1375 441 1716 441 
Q 2309 441 2620 675 
Q 2931 909 2931 1356 
Q 2931 1769 2642 2001 
Q 2353 2234 1838 2234 
L 1294 2234 
L 1294 2753 
L 1863 2753 
Q 2328 2753 2575 2939 
Q 2822 3125 2822 3475 
Q 2822 3834 2567 4026 
Q 2313 4219 1838 4219 
Q 1578 4219 1281 4162 
Q 984 4106 628 3988 
L 628 4550 
Q 988 4650 1302 4700 
Q 1616 4750 1894 4750 
Q 2613 4750 3031 4423 
Q 3450 4097 3450 3541 
Q 3450 3153 3228 2886 
Q 3006 2619 2597 2516 
z
" transform="scale(0.015625)"/>
       <path id="DejaVuSans-2d" d="M 313 2009 
L 1997 2009 
L 1997 1497 
L 313 1497 
L 313 2009 
z
" transform="scale(0.015625)"/>
       <path id="DejaVuSans-57" d="M 213 4666 
L 850 4666 
L 1831 722 
L 2809 4666 
L 3519 4666 
L 4500 722 
L 5478 4666 
L 6119 4666 
L 4947 0 
L 4153 0 
L 3169 4050 
L 2175 0 
L 1381 0 
L 213 4666 
z
" transform="scale(0.015625)"/>
       <path id="DejaVuSans-43" d="M 4122 4306 
L 4122 3641 
Q 3803 3938 3442 4084 
Q 3081 4231 2675 4231 
Q 1875 4231 1450 3742 
Q 1025 3253 1025 2328 
Q 1025 1406 1450 917 
Q 1875 428 2675 428 
Q 3081 428 3442 575 
Q 3803 722 4122 1019 
L 4122 359 
Q 3791 134 3420 21 
Q 3050 -91 2638 -91 
Q 1578 -91 968 557 
Q 359 1206 359 2328 
Q 359 3453 968 4101 
Q 1578 4750 2638 4750 
Q 3056 4750 3426 4639 
Q 3797 4528 4122 4306 
z
" transform="scale(0.015625)"/>
      </defs>
      <use xlink:href="#DejaVuSans-58"/>
      <use xlink:href="#DejaVuSans-74" x="68.505859"/>
      <use xlink:href="#DejaVuSans-72" x="107.714844"/>
      <use xlink:href="#DejaVuSans-20" x="148.828125"/>
      <use xlink:href="#DejaVuSans-73" x="180.615234"/>
      <use xlink:href="#DejaVuSans-65" x="232.714844"/>
      <use xlink:href="#DejaVuSans-6e" x="294.238281"/>
      <use xlink:href="#DejaVuSans-73" x="357.617188"/>
      <use xlink:href="#DejaVuSans-6f" x="409.716797"/>
      <use xlink:href="#DejaVuSans-72" x="470.898438"/>
      <use xlink:href="#DejaVuSans-3a" x="510.261719"/>
      <use xlink:href="#DejaVuSans-20" x="543.953125"/>
      <use xlink:href="#DejaVuSans-49" x="575.740234"/>
      <use xlink:href="#DejaVuSans-4d" x="605.232422"/>
      <use xlink:href="#DejaVuSans-45" x="691.511719"/>
      <use xlink:href="#DejaVuSans-76" x="754.695312"/>
      <use xlink:href="#DejaVuSans-33" x="813.875"/>
      <use xlink:href="#DejaVuSans-2d" x="877.498047"/>
      <use xlink:href="#DejaVuSans-57" x="909.582031"/>
      <use xlink:href="#DejaVuSans-31" x="1008.458984"/>
      <use xlink:href="#DejaVuSans-32" x="1072.082031"/>
      <use xlink:href="#DejaVuSans-2d" x="1135.705078"/>
      <use xlink:href="#DejaVuSans-43" x="1171.789062"/>
      <use xlink:href="#DejaVuSans-33" x="1241.613281"/>
      <use xlink:href="#DejaVuSans-2d" x="1305.236328"/>
      <use xlink:href="#DejaVuSans-31" x="1341.320312"/>
      <use xlink:href="#DejaVuSans-2d" x="1404.943359"/>
      <use xlink:href="#DejaVuSans-34" x="1441.027344"/>
     </g>
    </g>
    <g id="line2d_29">
     <path d="M 600.06625 51.6425 
L 616.06625 51.6425 
L 632.06625 51.6425 
" style="fill: none; stroke: #ff7f0e; stroke-width: 1.5; stroke-linecap: square"/>
    </g>
    <g id="text_16">
     <!-- Kernel Density Estimation -->
     <g transform="translate(644.86625 57.2425)scale(0.16 -0.16)">
      <defs>
       <path id="DejaVuSans-4b" d="M 628 4666 
L 1259 4666 
L 1259 2694 
L 3353 4666 
L 4166 4666 
L 1850 2491 
L 4331 0 
L 3500 0 
L 1259 2247 
L 1259 0 
L 628 0 
L 628 4666 
z
" transform="scale(0.015625)"/>
       <path id="DejaVuSans-44" d="M 1259 4147 
L 1259 519 
L 2022 519 
Q 2988 519 3436 956 
Q 3884 1394 3884 2338 
Q 3884 3275 3436 3711 
Q 2988 4147 2022 4147 
L 1259 4147 
z
M 628 4666 
L 1925 4666 
Q 3281 4666 3915 4102 
Q 4550 3538 4550 2338 
Q 4550 1131 3912 565 
Q 3275 0 1925 0 
L 628 0 
L 628 4666 
z
" transform="scale(0.015625)"/>
       <path id="DejaVuSans-79" d="M 2059 -325 
Q 1816 -950 1584 -1140 
Q 1353 -1331 966 -1331 
L 506 -1331 
L 506 -850 
L 844 -850 
Q 1081 -850 1212 -737 
Q 1344 -625 1503 -206 
L 1606 56 
L 191 3500 
L 800 3500 
L 1894 763 
L 2988 3500 
L 3597 3500 
L 2059 -325 
z
" transform="scale(0.015625)"/>
       <path id="DejaVuSans-6d" d="M 3328 2828 
Q 3544 3216 3844 3400 
Q 4144 3584 4550 3584 
Q 5097 3584 5394 3201 
Q 5691 2819 5691 2113 
L 5691 0 
L 5113 0 
L 5113 2094 
Q 5113 2597 4934 2840 
Q 4756 3084 4391 3084 
Q 3944 3084 3684 2787 
Q 3425 2491 3425 1978 
L 3425 0 
L 2847 0 
L 2847 2094 
Q 2847 2600 2669 2842 
Q 2491 3084 2119 3084 
Q 1678 3084 1418 2786 
Q 1159 2488 1159 1978 
L 1159 0 
L 581 0 
L 581 3500 
L 1159 3500 
L 1159 2956 
Q 1356 3278 1631 3431 
Q 1906 3584 2284 3584 
Q 2666 3584 2933 3390 
Q 3200 3197 3328 2828 
z
" transform="scale(0.015625)"/>
       <path id="DejaVuSans-61" d="M 2194 1759 
Q 1497 1759 1228 1600 
Q 959 1441 959 1056 
Q 959 750 1161 570 
Q 1363 391 1709 391 
Q 2188 391 2477 730 
Q 2766 1069 2766 1631 
L 2766 1759 
L 2194 1759 
z
M 3341 1997 
L 3341 0 
L 2766 0 
L 2766 531 
Q 2569 213 2275 61 
Q 1981 -91 1556 -91 
Q 1019 -91 701 211 
Q 384 513 384 1019 
Q 384 1609 779 1909 
Q 1175 2209 1959 2209 
L 2766 2209 
L 2766 2266 
Q 2766 2663 2505 2880 
Q 2244 3097 1772 3097 
Q 1472 3097 1187 3025 
Q 903 2953 641 2809 
L 641 3341 
Q 956 3463 1253 3523 
Q 1550 3584 1831 3584 
Q 2591 3584 2966 3190 
Q 3341 2797 3341 1997 
z
" transform="scale(0.015625)"/>
      </defs>
      <use xlink:href="#DejaVuSans-4b"/>
      <use xlink:href="#DejaVuSans-65" x="60.576172"/>
      <use xlink:href="#DejaVuSans-72" x="122.099609"/>
      <use xlink:href="#DejaVuSans-6e" x="161.462891"/>
      <use xlink:href="#DejaVuSans-65" x="224.841797"/>
      <use xlink:href="#DejaVuSans-6c" x="286.365234"/>
      <use xlink:href="#DejaVuSans-20" x="314.148438"/>
      <use xlink:href="#DejaVuSans-44" x="345.935547"/>
      <use xlink:href="#DejaVuSans-65" x="422.9375"/>
      <use xlink:href="#DejaVuSans-6e" x="484.460938"/>
      <use xlink:href="#DejaVuSans-73" x="547.839844"/>
      <use xlink:href="#DejaVuSans-69" x="599.939453"/>
      <use xlink:href="#DejaVuSans-74" x="627.722656"/>
      <use xlink:href="#DejaVuSans-79" x="666.931641"/>
      <use xlink:href="#DejaVuSans-20" x="726.111328"/>
      <use xlink:href="#DejaVuSans-45" x="757.898438"/>
      <use xlink:href="#DejaVuSans-73" x="821.082031"/>
      <use xlink:href="#DejaVuSans-74" x="873.181641"/>
      <use xlink:href="#DejaVuSans-69" x="912.390625"/>
      <use xlink:href="#DejaVuSans-6d" x="940.173828"/>
      <use xlink:href="#DejaVuSans-61" x="1037.585938"/>
      <use xlink:href="#DejaVuSans-74" x="1098.865234"/>
      <use xlink:href="#DejaVuSans-69" x="1138.074219"/>
      <use xlink:href="#DejaVuSans-6f" x="1165.857422"/>
      <use xlink:href="#DejaVuSans-6e" x="1227.039062"/>
     </g>
    </g>
    <g id="line2d_30">
     <path d="M 600.06625 75.1275 
L 616.06625 75.1275 
L 632.06625 75.1275 
" style="fill: none; stroke: #2ca02c; stroke-width: 1.5; stroke-linecap: square"/>
    </g>
    <g id="text_17">
     <!-- gradient of Xtr -->
     <g transform="translate(644.86625 80.7275)scale(0.16 -0.16)">
      <defs>
       <path id="DejaVuSans-67" d="M 2906 1791 
Q 2906 2416 2648 2759 
Q 2391 3103 1925 3103 
Q 1463 3103 1205 2759 
Q 947 2416 947 1791 
Q 947 1169 1205 825 
Q 1463 481 1925 481 
Q 2391 481 2648 825 
Q 2906 1169 2906 1791 
z
M 3481 434 
Q 3481 -459 3084 -895 
Q 2688 -1331 1869 -1331 
Q 1566 -1331 1297 -1286 
Q 1028 -1241 775 -1147 
L 775 -588 
Q 1028 -725 1275 -790 
Q 1522 -856 1778 -856 
Q 2344 -856 2625 -561 
Q 2906 -266 2906 331 
L 2906 616 
Q 2728 306 2450 153 
Q 2172 0 1784 0 
Q 1141 0 747 490 
Q 353 981 353 1791 
Q 353 2603 747 3093 
Q 1141 3584 1784 3584 
Q 2172 3584 2450 3431 
Q 2728 3278 2906 2969 
L 2906 3500 
L 3481 3500 
L 3481 434 
z
" transform="scale(0.015625)"/>
       <path id="DejaVuSans-64" d="M 2906 2969 
L 2906 4863 
L 3481 4863 
L 3481 0 
L 2906 0 
L 2906 525 
Q 2725 213 2448 61 
Q 2172 -91 1784 -91 
Q 1150 -91 751 415 
Q 353 922 353 1747 
Q 353 2572 751 3078 
Q 1150 3584 1784 3584 
Q 2172 3584 2448 3432 
Q 2725 3281 2906 2969 
z
M 947 1747 
Q 947 1113 1208 752 
Q 1469 391 1925 391 
Q 2381 391 2643 752 
Q 2906 1113 2906 1747 
Q 2906 2381 2643 2742 
Q 2381 3103 1925 3103 
Q 1469 3103 1208 2742 
Q 947 2381 947 1747 
z
" transform="scale(0.015625)"/>
       <path id="DejaVuSans-66" d="M 2375 4863 
L 2375 4384 
L 1825 4384 
Q 1516 4384 1395 4259 
Q 1275 4134 1275 3809 
L 1275 3500 
L 2222 3500 
L 2222 3053 
L 1275 3053 
L 1275 0 
L 697 0 
L 697 3053 
L 147 3053 
L 147 3500 
L 697 3500 
L 697 3744 
Q 697 4328 969 4595 
Q 1241 4863 1831 4863 
L 2375 4863 
z
" transform="scale(0.015625)"/>
      </defs>
      <use xlink:href="#DejaVuSans-67"/>
      <use xlink:href="#DejaVuSans-72" x="63.476562"/>
      <use xlink:href="#DejaVuSans-61" x="104.589844"/>
      <use xlink:href="#DejaVuSans-64" x="165.869141"/>
      <use xlink:href="#DejaVuSans-69" x="229.345703"/>
      <use xlink:href="#DejaVuSans-65" x="257.128906"/>
      <use xlink:href="#DejaVuSans-6e" x="318.652344"/>
      <use xlink:href="#DejaVuSans-74" x="382.03125"/>
      <use xlink:href="#DejaVuSans-20" x="421.240234"/>
      <use xlink:href="#DejaVuSans-6f" x="453.027344"/>
      <use xlink:href="#DejaVuSans-66" x="514.208984"/>
      <use xlink:href="#DejaVuSans-20" x="549.414062"/>
      <use xlink:href="#DejaVuSans-58" x="581.201172"/>
      <use xlink:href="#DejaVuSans-74" x="649.707031"/>
      <use xlink:href="#DejaVuSans-72" x="688.916016"/>
     </g>
    </g>
    <g id="line2d_31">
     <path d="M 600.06625 98.6125 
L 616.06625 98.6125 
L 632.06625 98.6125 
" style="fill: none; stroke-dasharray: 9.6,2.4,1.5,2.4; stroke-dashoffset: 0; stroke: #ff0000; stroke-width: 1.5"/>
    </g>
    <g id="text_18">
     <!-- left edge: 512.5 -->
     <g transform="translate(644.86625 104.2125)scale(0.16 -0.16)">
      <defs>
       <path id="DejaVuSans-2e" d="M 684 794 
L 1344 794 
L 1344 0 
L 684 0 
L 684 794 
z
" transform="scale(0.015625)"/>
      </defs>
      <use xlink:href="#DejaVuSans-6c"/>
      <use xlink:href="#DejaVuSans-65" x="27.783203"/>
      <use xlink:href="#DejaVuSans-66" x="89.306641"/>
      <use xlink:href="#DejaVuSans-74" x="122.761719"/>
      <use xlink:href="#DejaVuSans-20" x="161.970703"/>
      <use xlink:href="#DejaVuSans-65" x="193.757812"/>
      <use xlink:href="#DejaVuSans-64" x="255.28125"/>
      <use xlink:href="#DejaVuSans-67" x="318.757812"/>
      <use xlink:href="#DejaVuSans-65" x="382.234375"/>
      <use xlink:href="#DejaVuSans-3a" x="443.757812"/>
      <use xlink:href="#DejaVuSans-20" x="477.449219"/>
      <use xlink:href="#DejaVuSans-35" x="509.236328"/>
      <use xlink:href="#DejaVuSans-31" x="572.859375"/>
      <use xlink:href="#DejaVuSans-32" x="636.482422"/>
      <use xlink:href="#DejaVuSans-2e" x="700.105469"/>
      <use xlink:href="#DejaVuSans-35" x="731.892578"/>
     </g>
    </g>
    <g id="line2d_32">
     <path d="M 600.06625 122.0975 
L 616.06625 122.0975 
L 632.06625 122.0975 
" style="fill: none; stroke-dasharray: 9.6,2.4,1.5,2.4; stroke-dashoffset: 0; stroke: #008000; stroke-width: 1.5"/>
    </g>
    <g id="text_19">
     <!-- right edge: 575.5 -->
     <g transform="translate(644.86625 127.6975)scale(0.16 -0.16)">
      <defs>
       <path id="DejaVuSans-68" d="M 3513 2113 
L 3513 0 
L 2938 0 
L 2938 2094 
Q 2938 2591 2744 2837 
Q 2550 3084 2163 3084 
Q 1697 3084 1428 2787 
Q 1159 2491 1159 1978 
L 1159 0 
L 581 0 
L 581 4863 
L 1159 4863 
L 1159 2956 
Q 1366 3272 1645 3428 
Q 1925 3584 2291 3584 
Q 2894 3584 3203 3211 
Q 3513 2838 3513 2113 
z
" transform="scale(0.015625)"/>
      </defs>
      <use xlink:href="#DejaVuSans-72"/>
      <use xlink:href="#DejaVuSans-69" x="41.113281"/>
      <use xlink:href="#DejaVuSans-67" x="68.896484"/>
      <use xlink:href="#DejaVuSans-68" x="132.373047"/>
      <use xlink:href="#DejaVuSans-74" x="195.751953"/>
      <use xlink:href="#DejaVuSans-20" x="234.960938"/>
      <use xlink:href="#DejaVuSans-65" x="266.748047"/>
      <use xlink:href="#DejaVuSans-64" x="328.271484"/>
      <use xlink:href="#DejaVuSans-67" x="391.748047"/>
      <use xlink:href="#DejaVuSans-65" x="455.224609"/>
      <use xlink:href="#DejaVuSans-3a" x="516.748047"/>
      <use xlink:href="#DejaVuSans-20" x="550.439453"/>
      <use xlink:href="#DejaVuSans-35" x="582.226562"/>
      <use xlink:href="#DejaVuSans-37" x="645.849609"/>
      <use xlink:href="#DejaVuSans-35" x="709.472656"/>
      <use xlink:href="#DejaVuSans-2e" x="773.095703"/>
      <use xlink:href="#DejaVuSans-35" x="804.882812"/>
     </g>
    </g>
   </g>
  </g>
 </g>
 <defs>
  <clipPath id="pf11cc80657">
   <rect x="63.00625" y="7.2" width="837" height="434.88"/>
  </clipPath>
 </defs>
</svg>
